<?xml version="1.0" standalone="no"?>
<!DOCTYPE svg PUBLIC "-//W3C//DTD SVG 1.1//EN" "http://www.w3.org/Graphics/SVG/1.1/DTD/svg11.dtd" >
<svg xmlns="http://www.w3.org/2000/svg" xmlns:xlink="http://www.w3.org/1999/xlink" version="1.1">
<metadata></metadata>
<defs>
<font id="bodoqueregular" horiz-adv-x="1014" >
<font-face units-per-em="2048" ascent="1638" descent="-410" />
<missing-glyph horiz-adv-x="508" />
<glyph horiz-adv-x="0" />
<glyph unicode="&#xd;" horiz-adv-x="508" />
<glyph unicode=" "  horiz-adv-x="508" />
<glyph unicode="&#x09;" horiz-adv-x="508" />
<glyph unicode="&#xa0;" horiz-adv-x="508" />
<glyph unicode="!" horiz-adv-x="615" d="M115 441h257l127 135v866h-256l-128 -136v-865zM124 449v851h242v-851h-242zM126 -1h247l121 119v130l-117 124l-1 2h-126l-124 -123v-252zM129 1309l118 124h243v-1l-117 -123h-244zM134 7v238h116l117 -129v-109h-233zM140 253l114 112h109l-113 -112h-110zM258 249 l116 114l110 -117l-113 -122zM375 13v103l111 120v-114zM375 456v843l115 120v-840z" />
<glyph unicode="&#x22;" horiz-adv-x="765" d="M66 1229l70 -2v-138h147l74 70v144h-74l2 211l50 42l-123 86l-145 -119l-1 -1v-293zM71 1234v285l83 69l124 -73l-69 -65v-223h1l3 -4l4 4h63v-133h-139v138zM158 1591l54 45l115 -80l-45 -37zM214 1232v216l66 62l-2 -212l-63 -66h-1zM222 1232l62 65h64l-63 -66v1h-63z M285 1097v127l67 70v-132zM412 1231l70 -1v-139h148l73 71v143h-74l2 212l50 41l-123 87l-145 -120l-1 -1v-293zM417 1236v286l83 68l124 -73l-69 -65v-222h2l-1 -1l3 -4l4 5h63v-134h-139v139zM504 1593l55 45l114 -80l-45 -37zM560 1235v215l66 62l-2 -211l-63 -66h-1z M568 1235l63 65h64l-64 -67v2h-63zM631 1099v127l67 70v-132z" />
<glyph unicode="#" horiz-adv-x="1585" d="M68 256h261v-264h269v3l131 135v118l124 1v-257h267v4l2 -3l132 137v121l129 5v2l135 107v289h-267v109h129l138 131v138l-131 136h-136l3 257v8h-273l-131 -128v-137h-111v265h-270l-138 -123h-2v-142h-126l-132 -118h-3v-270h261v-126h-128l-133 -134v-264zM77 265v248 h261v276h-261v251h261v261h257v-276h264v273h257v-249l-3 -3l3 -3v-3h3l1 -1l1 1h133l123 -145l-3 -123h-258v-271h258v-236l-264 -10v-254h-248v258l-273 -3v-255h-251v264h-261zM84 522l121 123h124v-123h-245zM85 1050l121 108h123v-108h-244zM345 1310l128 114h250 l-125 -114h-253zM598 8v239l121 1v-115zM598 523h270v259h-270v-259zM604 1041v263l126 114v-253zM607 537v236h132v-126zM611 1034l126 124h113v-124h-239zM615 532l130 109h114v-109h-244zM748 650v123h111v-123h-111zM866 1307l119 117h254l-126 -115l2 -2h-249zM1120 4 v243l124 4v-118zM1125 1307l120 109l-3 -253l-116 -106v250h-1zM1126 518v245h116v-112zM1131 510l118 135h254l-126 -135h-246zM1131 1050l120 108h128l-125 -108h-123zM1262 1045l125 109l120 -124l-122 -130zM1383 270v234l126 134v-268zM1383 779l3 111l2 -1l121 129 v-120z" />
<glyph unicode="$" horiz-adv-x="1196" d="M53 22h300v-294h310v3l144 147l3 151l303 289l2 2v308l-5 -4l-153 161l158 148v156l-157 136l-141 3l-3 294l2 2l-2 2v7h-309l-147 -157v-151l-153 -149l2 -2l-154 -136v-294l155 -166h444v-151h-581l145 142l-7 8l-153 -150h-3v-305zM64 33v284h599v172h-450l-149 159 v285l147 130h157v305h281v-287h5l7 -7l8 7h133l7 -7l134 -141l-3 -146l-435 3v-154l-2 -2l2 -2v-7l298 -7l144 -147v-297l-144 -138l-151 -7v-291h-289v295h-299zM219 1074l139 136v-136h-139zM375 1379l134 144h290l-145 -142l2 -2h-281zM516 646v133l135 -1zM520 636 l145 142h-1l276 -2l-145 -142l6 -5zM659 1091v284l2 -2l142 139l4 -282l-143 -139h-5zM663 19l136 7l-3 -143l-133 -137v273zM679 1091l130 127l129 -3l-129 -126l-2 2h-128zM805 629l148 145l149 -157l-150 -137l-145 149h-2zM817 1082l134 131l-1 1h4l144 -125l-149 -146z M951 794l3 139l151 147v-142zM957 184v286l148 135v-281z" />
<glyph unicode="%" horiz-adv-x="1610" d="M62 1080q0 100 52 190.5t144.5 139.5t190.5 49t190.5 -49t144.5 -139.5t52 -190.5q0 -99 -50.5 -188.5t-143 -140t-193.5 -50.5q-100 0 -192.5 50.5t-143.5 140t-51 188.5zM202 1128q0 -31 4 -62q13 -92 55.5 -173.5t106.5 -124.5q57 -40 114 -40q7 0 13 1q63 3 115 53 t73 136q13 54 13 111q0 32 -4 65q-12 93 -56 175.5t-107 124.5q-58 38 -115 38h-11q-61 -3 -113 -52t-73 -135q-15 -58 -15 -117zM297 -29l940 1461h84l-938 -1461h-86zM774 359q0 99 52 189.5t144.5 140t190.5 49.5q97 0 190 -49.5t145 -140t52 -189.5q0 -100 -50.5 -189.5 t-143 -139.5t-193.5 -50t-193 50t-143 139.5t-51 189.5zM914 406q0 -31 4 -62q13 -92 55.5 -173.5t106.5 -124.5q59 -39 116 -39h11q63 3 115 53t73 136q13 54 13 111q0 32 -4 65q-12 93 -56 175.5t-107 124.5q-58 38 -115 38h-11q-61 -3 -113 -52t-73 -135 q-15 -58 -15 -117z" />
<glyph unicode="&#x26;" horiz-adv-x="1683" d="M152 520q0 161 76 266.5t225 151.5q-42 61 -62.5 116t-20.5 111q0 105 77 197t182 92q68 0 142 -39q9 -6 18 -6q23 0 38 45h46l96 -281h-46q-55 133 -155 178q-85 37 -141 37q-65 0 -106 -45.5t-41 -117.5q0 -131 102 -267l531 -670q98 146 121 244q17 78 17 130 q0 97 -62 97h-90v50h443v-50h-90q-95 0 -145 -227q-31 -132 -155 -292q109 -136 248 -136h16q143 17 192 128l49 -1l-103 -231h-160q-56 0 -139 25t-167 132q-67 -74 -175 -123.5t-241 -49.5q-229 0 -374.5 150.5t-145.5 385.5zM256 589q0 -91 35.5 -181.5t101.5 -164.5 q72 -83 165 -127t194 -44q88 0 169 33.5t130 90.5l-554 683q-118 0 -179.5 -86t-61.5 -204z" />
<glyph unicode="'" horiz-adv-x="346" d="M101 1500q0 37 20.5 57t59.5 20t60.5 -19.5t21.5 -56.5q0 -8 -4 -34l-62 -359h-30l-62 359q-4 23 -4 33z" />
<glyph unicode="(" horiz-adv-x="1047" d="M82 -166l218 -218h450v5l216 223v402l1 2l-1 1v22l-214 -5l-5 644l219 224v199l1 1l-1 2v17l-223 213h-222l-437 -419l-2 -2v-1311zM97 -160v1299l219 209h205l-2 -2l10 -12l3 3l205 -203l-5 -213h-213v-873h216v-417h-429zM332 1364l195 187h210l3 -4l-208 -189l-5 6 h-195zM534 73v833h198l5 -644zM543 1347l208 190l199 -190v-7l-208 -190zM546 63l202 188l202 5v-3l-209 -190h-195zM748 933l4 206l198 180v-179zM750 50l200 183v-383l-200 -208v408z" />
<glyph unicode=")" horiz-adv-x="1025" d="M78 91v-450h435l434 429v1274l8 7l-10 11l-3 -2l-209 219h-431l-224 -219v-435h220v-624zM93 81l215 5l5 209v645h-220v409h417l212 -205v-1275l-215 -213h-414v425zM104 1364l204 200h419l204 -214l-206 -188l2 -2l-203 197l213 194l-10 11l-217 -198h-406zM105 96 l192 184l-4 -180zM735 1152l197 179v-1255l-195 -192v1266z" />
<glyph unicode="*" horiz-adv-x="1024" d="M238 1192l59 -123l121 58v-119h117v1l69 53v29l42 -22l78 118l1 2l25 47l-81 45l102 48l-58 119l-109 -51v151h-125l-60 -53h-1v-72l-37 24l-80 -16h-1l-62 -121l117 -61zM244 1190l120 59l-120 63l58 114l120 -65v130h117v-129l124 58l54 -111l-121 -57l123 -65 l-75 -113l-113 60v-122h-109v122l-123 -60zM307 1428l73 15l38 -26v-49zM425 1495l56 49h115l-55 -49h-116zM535 1014v113l65 -34v-29zM544 1369v123l56 49v-146zM605 1251l59 28l80 -45l-23 -43zM667 1422l44 20l54 -111l-44 -21z" />
<glyph unicode="+" d="M87 647v140h350v369l1 1h139v-370h349l1 -1v-139h-350v-370h-140v370h-350z" />
<glyph unicode="," horiz-adv-x="557" d="M59 -42h93v-310l202 106l92 102v283l-88 116h-204l-94 -101l-1 -1v-195zM66 -35v183h185l102 -98l-4 -291l-190 -100v306h-93zM70 155l87 93h191l-97 -93h-181zM257 151l99 95l82 -108l-82 -82zM356 -233l4 283l79 79v-270z" />
<glyph unicode="-" horiz-adv-x="670" d="M53 399h405l78 62v68l-70 71h-348l-65 -61v-140zM58 403v133h332l70 -75l1 -54l-4 -4h-399zM61 541l59 54h338l-68 -54h-329zM395 538l69 56l66 -66l-68 -63zM465 461l66 62v-60l-65 -52z" />
<glyph unicode="." horiz-adv-x="470" d="M101 -8h190l93 89v97l-91 93h-96l-96 -91v-188zM107 -2v177h90l89 -96v-81h-179zM112 182l87 83h85l-87 -83h-85zM202 178l90 85l85 -87l-87 -91zM293 3v76l85 89v-84z" />
<glyph unicode="/" horiz-adv-x="1158" d="M71 -59h422l213 183l397 1101l1 3l-123 209h-203l-194 -175l-1 -1l-508 -1311zM90 -46l503 1296h191l132 -171l-447 -1125h-379zM484 -46l445 1122l153 130l-387 -1074l-207 -178h-4zM606 1264l177 160h177l-175 -160h-179zM796 1256l179 164l113 -191l-163 -139z" />
<glyph unicode="0" horiz-adv-x="1106" d="M84 156l158 -174h481l307 324l1 1v945l-162 177h-473l-312 -322v-951zM95 160v943l144 149h479l151 -164v-936l-151 -159h-472zM250 1263l151 155h463l2 -2l-157 -153h-459zM406 416h172v166h-172v-166zM417 434v137h70v-70zM425 427l69 67h73v-67h-142zM498 505v66h69 v-66h-69zM724 1262l149 146l141 -154l-149 -146zM873 1100l147 144v-932l-140 -149v930z" />
<glyph unicode="1" horiz-adv-x="944" d="M59 768h152l152 160v-923h317l164 158v1115l-147 153h-9l-3 3l-3 -3h-305l-318 -318v-345zM70 779v329l160 160h302l151 -164l-11 -1088h-298v940l-168 -177h-136zM241 1279l141 141h289l-134 -142v1h-296zM545 1270l142 150h5l141 -146v-8l-144 -151zM684 24l11 1080 l138 146v-1082z" />
<glyph unicode="2" horiz-adv-x="1132" d="M85 5h806v3l148 156v322h-470l485 463l1 2v321l-164 164h-477l-329 -297v-330h333v3l144 150v-145l-477 -477v-335zM96 16v319l477 477v169h-166v-161h-311v314l161 145h471l148 -169v-315l-483 -462l485 -17l2 -300h-784zM269 1290l149 135h453l-143 -135h-459zM418 828 v142h136zM420 343l148 142v-11h450l-140 -147zM738 1284l149 140l155 -155l-160 -149zM887 805v305l157 147v-301zM889 322l139 146v-300l-137 -144z" />
<glyph unicode="3" horiz-adv-x="1098" d="M57 0h788l166 155v649l-6 -6l-165 139l171 173v162l-151 165h-648l-155 -165v-321h305l-151 -160l158 -160v-148h-157l-152 -158h-3v-325zM68 11v302h312v322l-154 156l161 171h-319v302h620l152 -154v-156l-162 -163l162 -160l-3 -620h-769zM75 1275l142 151h627 l-147 -155l-5 4h-617zM76 325l141 147h152v-147h-293zM694 791l138 138l165 -139l-151 -149zM705 1263l152 160l143 -155v-12l-154 -136zM848 18l4 613l148 146v-617zM852 965v144l148 132v-127z" />
<glyph unicode="4" horiz-adv-x="1119" d="M86 320l473 -17v-298h317l156 149v1107l-1 2l3 3l-8 8l-2 -2l-140 175h-173l-146 -153l5 145l8 8h-336l-156 -165v-962zM97 331v943h298l-3 -643h173v643h154l149 -157v-1101h-298v298zM105 1285l142 151h304l-152 -151h-294zM403 649l3 628l153 151l-5 -146v-3l-1 -5h1 v-490zM412 642l142 127v-127h-142zM572 1285l144 151h149l-143 -151h-150zM730 1278l148 155l-3 3h4l137 -173l-136 -143v2zM880 24v1087l3 -4l138 146v-1095z" />
<glyph unicode="5" horiz-adv-x="1097" d="M86 -12h632l317 317v470l-158 170h-144l153 145l2 2l-4 163l-158 170h-482l-158 -162v-802h151l-148 -144h-3v-329zM97 -1v307h314v166h-314v783h461l156 -159v-151h-310l-8 -170h13l3 -4l4 4l305 -4l148 -159l-2 -459l-153 -154h-617zM105 317l142 138l-6 6h159v-144 h-295zM105 1266l144 148h461l-152 -148h-453zM408 786l7 148h148l-152 -148h-3zM427 786l148 144l-4 4h143v-8l8 8h150l3 -3l-153 -149zM569 1261l154 151l144 -154l-151 -148zM723 1102l150 146l3 -151l-151 -145v148zM732 776l150 147l139 -149l-151 -147zM878 164l2 452 l-2 3l146 143v-452z" />
<glyph unicode="6" horiz-adv-x="1107" d="M97 156l155 -155h482l316 305l1 1v479l-157 156l157 161v160l-162 177h-315l-477 -488v-796zM108 160v787l309 317h310l3 -4l1 1l143 -158l7 -153l-3 -2l-306 4l-169 -163l319 -4l159 -163l-1 -464l-151 -146h-473zM420 331h172v167h-172v-167zM428 1275l150 154h306 l4 -4l-3 2l-155 -152h-302zM430 800l146 140l291 -3l-144 -141zM431 350v137h70v-70zM439 343l69 66h73v-66h-142zM512 420v67h69v-67h-69zM732 790l149 145l1 -6l5 5l148 -148l-153 -149zM739 1269l154 150l146 -160l-155 -151zM885 1096l2 -2l153 150v-137l-148 -152z M890 629l150 147v-464l-149 -143l1 455v2z" />
<glyph unicode="7" horiz-adv-x="1068" d="M54 949h467l-158 -308v-1l-4 -645h331v3l161 158v796l155 149v163l-161 168h-637l-154 -168v-315zM65 960v296h610l158 -155l7 -146l-165 -315l4 -634h-309l4 631l165 323h-474zM72 1267l141 154h626l-158 -155l-2 1h-607zM686 637l154 295v-771l-150 -147zM688 1258 l159 155l146 -151l-154 -151zM844 1102l151 147v-143l-144 -139z" />
<glyph unicode="8" horiz-adv-x="1136" d="M77 158l161 -159h469l320 309l2 2v330l-6 -5l-166 148l172 181l15 314l-170 147h-479l-318 -306v-314l155 -158l-155 -174v-315zM88 162v307l160 179l-160 161v305l162 156h453l163 -156v-306l-173 -181l169 -162v-301l-159 -154h-461zM262 1281l138 133h467l-155 -137 l-5 4h-445zM391 364h172v167h-172v-167zM395 821h172v167h-172v-167zM402 383v137h70v-70zM406 840v137h69v-70zM410 375l70 67h72v-67h-142zM414 832l69 67h73v-67h-142zM483 453v67h69v-67h-69zM486 910v67h70v-67h-70zM709 627l140 148l166 -148l-147 -152zM720 1269 l157 139l153 -132l-159 -151zM873 175v290l145 148v-299zM877 820v296l155 146l-14 -294z" />
<glyph unicode="9" horiz-adv-x="1106" d="M74 622l161 -162h316v-464h322l160 156v1111l-152 163l1 2l-8 8l-6 -6h-475l-319 -319v-489zM85 626v480l160 161h467l146 -168l7 -1092h-302v465h-323zM256 1278l142 141h459l-144 -141h-457zM398 844h173v167h-173v-167zM409 862v138h70v-70zM417 855l70 67h73v-67 h-143zM490 933v67h70v-67h-70zM722 1272l151 147l148 -160l-156 -151zM869 1096l152 148v-1088l-145 -141z" />
<glyph unicode=":" horiz-adv-x="431" d="M54 688h188l92 88v96l-90 92h-95l-95 -90v-186zM54 688h188l92 88v96l-90 92h-95l-95 -90v-186zM60 694v175h88l89 -95v-80h-177zM60 694v175h88l89 -95v-80h-177zM63 9h188l92 88v96l-90 92h-95l-95 -90v-186zM65 876l86 82h84l-86 -82h-84zM65 876l86 82h84l-86 -82 h-84zM69 15v175h88l89 -95v-80h-177zM74 197l86 82h84l-86 -82h-84zM154 872l88 84l85 -86l-87 -90zM154 872l88 84l85 -86l-87 -90zM163 193l88 84l85 -86l-87 -90zM244 699v75l84 88v-83zM244 699v75l84 88v-83zM253 20v75l84 88v-83z" />
<glyph unicode=";" horiz-adv-x="453" d="M57 -15h84v-280l183 96l83 92v256l-80 105h-184l-86 -92v-177zM63 -9v166h168l92 -89l-3 -262l-172 -91v276h-85zM67 163l79 85h172l-87 -85h-164zM67 706h186l92 88v94l-90 92h-94l-94 -90v-184zM73 712v174h88l88 -94v-80h-176zM78 892l85 82h83l-85 -82h-83zM166 889 l88 83l84 -85l-86 -90zM237 160l88 86l75 -98l-74 -74zM255 717v75l84 87v-83zM326 -188l3 256l72 72v-244z" />
<glyph unicode="&#x3c;" d="M87 674v83l840 484v-167l-625 -359l625 -355v-167z" />
<glyph unicode="=" horiz-adv-x="871" d="M79 452h627l95 80v188h-88l89 83v90l-96 91h-534l-93 -91v-180h92l-92 -84v-177zM85 458v166h617v-166h-617zM85 720v169h529v-1h1l85 -90l2 -78h-617zM90 630l90 83h610l-86 -83h-614zM90 895l84 83h524l-85 -83h-523zM619 893l86 83l90 -85l-90 -89zM707 796l89 86v-77 l-88 -81zM708 462v164l86 83v-174z" />
<glyph unicode="&#x3e;" d="M87 193v167l625 355l-625 359v167l840 -484v-83z" />
<glyph unicode="?" horiz-adv-x="961" d="M26 821h256v2l120 121v122h117l-9 -239l-116 -115v-263h240v3l132 129v243l125 119l2 1v243l-241 254l-2 2h-3l-3 3l-3 -3h-245l-369 -370l-1 -1v-251zM35 829v239l244 245l242 -3l236 -242v-240l-131 -124l-1 -1v-245h-223v250l116 115l10 251h-254v-245h-239zM282 836 v230h112v-118zM288 1322l112 112h233l-110 -115zM409 4h257l126 120v130l-123 127h-130l-130 -124v-253zM418 12v239h120l122 -130v-109h-242zM424 260l118 112h114l-117 -112h-115zM530 1314l115 120h2l230 -243l-113 -118zM546 255l121 115l115 -117l-118 -124zM634 464 v235l123 117v-231zM668 18v103l116 121v-114zM766 836v226l117 123l1 -2v-235z" />
<glyph unicode="@" horiz-adv-x="1972" d="M88 -131l279 -279h967v3l145 135l1 1v281h137l280 282v817l5 5l-7 7l-3 -3l-275 290h-1110l-418 -411l-1 -1v-1127zM98 -127v1118l269 265h1106l277 -287v-811l-137 -139h-546l-3 133l-150 -133l-269 7l-135 125l1 1l-3 4l6 552l134 128l259 3l157 -143l3 143l263 -3 l-9 -551v-6l166 7v563l-156 130l-129 1l-3 4l-4 -4l-136 2l-2 2l-2 -2l-552 7h-2l-137 -140v-827l-2 -2l2 -3v-4l140 -147l820 -6v-260h-953zM374 16v2l129 126l136 -127l2 -1l277 -6h552v-8l-136 -133v1l-826 6zM374 32v813l131 134l264 -3l-127 -132l-128 -122l-1 255h-10 l1 -266l-6 -558zM377 1266l134 132h1095l-134 -131l1 -1h-1096zM657 846l126 130l262 -4l-130 -127l-4 4zM774 307h287v276h-287v-276zM784 323v251h129v-127zM791 317l129 123h131v-123h-260zM922 450v124h129v-124h-129zM922 839l136 133l66 -61l-64 -62h-3v-3l-1 -2l1 -2 l-3 -124zM929 19l125 112l3 -112h-128zM1072 972l113 -1l-55 -54zM1074 849l125 122l128 -2l71 -59l-65 -64zM1331 290v1l1 -1h-1zM1331 297l9 542l66 65l71 -59v-425zM1334 -144v-1l136 134v-255l-136 -128v250zM1337 290l140 117v-111zM1481 1262l136 133l268 -284 l-133 -130zM1759 974l128 125v-803l-127 -128v805z" />
<glyph unicode="A" horiz-adv-x="1540" d="M110 -5h385v4l192 189v178l171 1l-4 -372h393l193 183v1324l-193 196h-951l-186 -197v-1506zM123 8v1484h930l185 -185v-1299h-370l3 372l-387 -1l-2 -371h-359zM132 1505l169 180h928l-177 -180h-920zM472 738h389v377h-389v-377zM486 761v340h174v-172zM495 18l2 348 h177v-172zM495 752l174 168h178v-168h-352zM673 933v168h174v-168h-174zM1065 1499l180 183l179 -184l-183 -175zM1250 1313l177 169v-1298l-176 -167v1295z" />
<glyph unicode="B" horiz-adv-x="1521" d="M70 0h1172l215 182v562l-190 205l2 557l-200 205h-803l-196 -200v-1511zM84 13v1489h777l194 -188v-555l182 -198l-4 -548h-1149zM93 1515l179 183h777l-188 -183h-768zM422 377h403v379h-403v-379zM425 935h403v378h-403v-378zM436 406v337h175v-173zM439 963v337h174 v-173zM446 391l181 169h184v-169h-365zM449 948l180 169h185v-169h-365zM631 573v170h180v-170h-180zM633 1131v169h181v-169h-181zM874 1508l192 187l188 -192l-191 -177zM1069 779v534l187 173l-3 -536zM1071 762l189 175l174 -188l-189 -176zM1247 21l4 540l192 178v-551 z" />
<glyph unicode="C" horiz-adv-x="1525" d="M75 381l190 -384h980l205 185v569l-397 9l-206 -182h-173l4 554h177l1 -177l394 -5l200 182v373l-200 195h-778l-198 -179l-199 -380v-760zM89 382v755l194 372l768 5l195 -187v-361h1l-3 -2l-374 4l-2 178h-405v-763l405 -7v184h378l-10 -550h-963zM296 1523l181 164 h753l-176 -160zM477 405v727h187l-4 -558zM487 396l182 169h183l2 1v-176zM862 573l196 173l369 -8l-178 -165h-387zM1065 1519l182 165l187 -181l-182 -163zM1250 19l10 545l177 164v-540zM1260 978v350l177 159v-350z" />
<glyph unicode="D" horiz-adv-x="1478" d="M88 -4h932l376 377v1140l-183 194h-935l-190 -194v-1517zM101 9v1495h916l186 -180l-6 -1132l-183 -183h-913zM110 1517l174 176h910l-181 -176h-903zM469 373h384v370h-384v-370zM482 395v335h173v-169zM492 386l172 166h176v-166h-348zM668 565v165h172v-165h-172z M1027 1513l183 178l171 -181l-168 -177zM1210 205l6 1113l167 176v-1116z" />
<glyph unicode="E" horiz-adv-x="1506" d="M86 6h1146l193 201v372h-557l188 194l-4 369h183l190 194l5 185l-192 194h-7l-3 4l-4 -4h-941l-197 -180v-1529zM99 19v1506h940l183 -192l3 -177h-762v-197h379l4 -380h-383v-193h8l3 -3l3 3h744l1 -367h-1123zM110 1539l179 163h921l-172 -163h-928zM476 404v162h170z M476 972v170h180l-178 -170h-2zM490 399l175 166l-1 1h742l-175 -167h-741zM497 972l178 170h364v-6l-4 4l-179 -172v4h-359zM856 950l183 175l3 -347l-183 -189zM1051 1532l178 170h4l181 -184l-184 -174zM1234 384l178 170v-342l-177 -183zM1236 1332l1 -1l179 171 l-4 -160l-173 -177z" />
<glyph unicode="F" horiz-adv-x="1490" d="M76 -9h382l205 185v379h184l195 195v365h184l192 202v196l-185 189l-2 2l-957 8h-3l-195 -182v-1539zM89 4v1503h944l184 -194l3 -185h-772v-184h390v-376h-390v-557h12l-7 -7h-364zM89 1520v5l188 174l934 -9l-178 -170h-944zM462 13v542h188v-373zM462 964v151h157z M474 957l165 158h372l-165 -158h-372zM851 577v367l178 169v-358zM1045 1513l183 174l176 -179v-1l-185 -177zM1228 1320l176 168v-166l-171 -180l-3 176z" />
<glyph unicode="G" horiz-adv-x="1384" d="M87 523l180 -348l505 -3v-172h349l6 6h3v4l160 165v684l-512 3h-3l-160 -160l5 480h152v-155h349l169 162v339l-175 173h-678l-170 -171l-179 -336l-1 -1v-670zM99 526v664l176 332l666 3l168 -166v-320h-326v155h-162l-187 3v-663h-1l1 -1v-14h179l1 151h504v-656l-2 -2 h-333v172l-509 3zM287 1533l155 156h656l-155 -152zM446 544v641l163 -2l-6 -505zM448 530l155 133l-2 -133h-153zM611 682l169 169l498 -3v-1l-156 -165h-511zM952 1530l160 157l166 -163v-7l-2 3l-162 -150zM1121 1043v317l157 146v-312zM1130 27v646l148 157v-650z" />
<glyph unicode="H" horiz-adv-x="1465" d="M48 9h396v4l189 181v185h164l4 -384h392l191 193v1329l-191 194h-195l-202 -194v-567h-163v761h-392l-193 -194v-1508zM61 23v1485h369l1 -1v-752h380l-2 189v551h187l181 -178l7 -1309h-370l-4 384h-386l7 -369h-370zM70 1521l177 177h364l-179 -177h-362zM438 379h182 v-180l-176 -168zM444 778v736l176 175v-743zM453 769l177 168h166l1 -168h-344zM809 1508v4l195 186h171l-177 -190h-189zM1009 1500l181 195l181 -183v-8l-186 -177zM1190 1319l3 -3l178 170v-1292l-174 -176z" />
<glyph unicode="I" horiz-adv-x="773" d="M93 0h385l193 195l-2 1322v3l-191 193h-3l-2 2l-2 -2h-191l-187 -180v-1533zM106 13v1511h177l182 -192v-1311h14v1311l177 170l2 -1302l-185 -187h-367zM116 1537l169 163h172l-171 -163h-170zM297 1529l177 169l179 -181l-181 -173z" />
<glyph unicode="J" horiz-adv-x="1611" d="M41 0h949v4l190 190v932h181l194 205v190l-189 194h-941l-194 -194l6 -395l370 -5l5 -347h-388l-183 -199v-575zM54 13v553l362 5v-190h209v380l-5 373l-370 5l-5 373h931l176 -187v-186h-381l5 -1126h-922zM63 579l167 182h372l-182 -177zM254 1525l177 177h911 l-171 -177h-917zM429 397v178l183 177v-180zM445 394l167 160v-160h-167zM984 1126h183v-926l-177 -178zM1185 1521l176 181l180 -185l-179 -184zM1365 1149v175l4 -3l173 178v-163z" />
<glyph unicode="K" horiz-adv-x="1300" d="M80 -10h383v4l192 186l191 -193l386 389l-3 3v187l-287 289l285 283l2 2v192l-279 306l-112 -108l-182 -183v362l10 10h-389l-197 -197v-1532zM93 3v1509h360l4 -386l386 390l370 -374l-380 -376l380 -390l-367 -370l-389 393l-7 -396h-357zM103 1525l180 180h351 l-177 -180h-354zM463 13l6 354l176 -177zM466 1516l177 180v-363l-173 -175zM852 766l81 80l283 -286v-167zM852 1525l97 94l267 -293v-167z" />
<glyph unicode="L" horiz-adv-x="1503" d="M77 0h1147l197 191v393l-760 6l-4 916v15v3l-190 187h-196l-194 -187v-1524zM90 13v1501h178l189 -183v-932v-1v-18h754l3 -367h-1124zM100 1528l176 170h175l-178 -170h-173zM282 1519l184 174l178 -175v-6l-178 -170zM471 394l186 183l747 -7l-185 -176h-748zM471 412 v916l173 165l3 -907zM1224 383l2 -2l182 174v-359l-180 -174z" />
<glyph unicode="M" horiz-adv-x="1862" d="M74 -8h390v4l123 111l59 -115h378l1 2l181 156l-3 -158h386l204 184v1334l-190 201h-199l-373 -377l-368 370l7 7h-396l-200 -197v-1522zM87 5v1499h371l379 -385l384 388l189 -2l180 -184l-10 -1316h-363l7 391l-208 -391h-362l-196 387l-7 -387h-364zM97 1518l183 180 h358l-180 -180h-361zM464 14l6 324l111 -218zM470 1511l184 184l367 -371l-184 -186zM1043 27l167 314l-4 -173zM1234 1521l175 177h179l-185 -180zM1419 1515l183 178l167 -177l-173 -182zM1593 14l10 1307l176 185l1 -1v-1323z" />
<glyph unicode="N" horiz-adv-x="1484" d="M71 -9h386v4l183 178l187 -182h382l193 190v1334l-190 203h-192l-193 -203v-156l-179 352l8 7h-395l-190 -200v-1527zM84 4v1501h366v2l390 -789v787l177 -3l182 -186v-1312h-366l-393 382l4 -382h-360zM90 1519l177 186h358l-177 -186h-358zM454 355l177 -173l-174 -169 zM462 1514l176 186l189 -371v-554zM848 1518l178 187h180l1 -1l-192 -187l1 -2zM1027 1510l189 185l170 -183l-184 -179zM1211 1323l178 173v-1309l-176 -173v1308z" />
<glyph unicode="O" horiz-adv-x="1473" d="M75 190l197 -194h950l191 190v1318l1 1l-1 2v6l-197 190h-941l-200 -190v-1323zM88 195v1308l946 -10l179 -185v-1299h-936zM98 1516l183 174h917l-172 -183zM455 556h391v377h-391v-377zM468 578v342h176v-173zM478 569l175 169h179v-169h-354zM657 751v169h175v-169 h-175zM1042 1504l171 183l185 -179l-178 -188zM1226 19v1289l173 182v-1298z" />
<glyph unicode="P" horiz-adv-x="1488" d="M87 4h396v4l182 192v184h370l381 373l2 2v754l-188 206h-938l-205 -202v-1513zM100 17v1490h942l175 -194v-721h12l-200 -195h-559v-380h-370zM110 1520l188 185h926h1l-189 -185h-926zM475 772h388v374h-388v-374zM483 27v357h169v-179zM488 794v339h174v-171zM498 785 l174 168h177v-168h-351zM675 966v167h174v-167h-174zM1051 1517l183 178l167 -182l-184 -180zM1226 1323l179 175v-734l-175 -171v725z" />
<glyph unicode="Q" horiz-adv-x="1837" d="M80 -4h1513l194 188v360l12 10l-9 10l-3 -2v4h-376l4 941l-208 208h-932l-195 -204v-1515zM93 9v1493h927l178 -196v-931h9l2 -1l2 1h377l-4 -366h-1491zM102 1515l178 186h909l-169 -186h-918zM455 379h390v377h-390v-377zM469 401v342h175v-173zM478 392l175 169h179 v-169h-354zM657 574v169h175v-169h-175zM1031 1508l174 190l194 -194l-188 -194v1zM1211 394v897l191 196l-5 -925zM1225 388l181 165h368v-3l-178 -162h-371zM1597 18l4 358l173 156v-342z" />
<glyph unicode="R" horiz-adv-x="1504" d="M80 -3h388v5l3 -3l116 120l63 -122h387l194 188l-187 204l182 172l206 200v755l-200 190l-1 2h-952l-199 -192v-1519zM93 10v1497h939l188 -170l-5 -768l-183 -173h-198l190 -386h-366l-61 119l2 1l-5 5l-133 260l-6 -385h-362zM103 1520l181 174h928l-172 -177l-3 3 h-934zM464 756h393v379h-393v-379zM468 15l5 326l108 -210zM477 778v344h177v-174zM487 769l176 170h180v-170h-356zM667 952v170h176v-170h-176zM855 382h176l181 -196l-176 -171zM1050 1508l178 184l191 -181v-1l-9 8l-176 -182v6zM1229 582l5 735l185 191v-741z" />
<glyph unicode="S" horiz-adv-x="1484" d="M84 0h1131v4l196 198v953l-167 2l167 171v208l-187 181l-2 2h-753l-385 -361v-767h186l-182 -191h-4v-400zM97 13v374h747l6 217h-753v748l189 177v-6h746l182 -180l6 -6l2 -1v-179l-560 -2l-10 -205l560 -2l-10 -935h-1105zM106 400l182 191h548l-5 -191h-725zM294 1536 l181 170h729l-166 -171l-1 1h-743zM666 967l8 175h162zM680 963l175 179l374 2l161 -2l-175 -181zM1047 1526l172 177l178 -172l-173 -178zM1215 23l11 931l172 177v-924zM1233 1344l165 169v-179l-163 -167v174z" />
<glyph unicode="T" horiz-adv-x="1488" d="M72 1131h387l3 -1129v-7h386v4l200 179l2 2v948h181l195 188v204l-192 182l-954 17h-2l-206 -199v-389zM85 1144v368h949l184 -195l3 -176h-386v-1133h-360l-3 1130v6h-387zM97 1525l186 180l932 -16l-174 -166l-2 2h-942zM848 17v1111h188v-942zM1050 1514l181 172 l179 -169l-190 -182zM1229 1325l184 177v-180l-179 -172l-3 173z" />
<glyph unicode="U" horiz-adv-x="1491" d="M71 4h1150l194 177v1320l-197 214h-193l-194 -201v-934h-176v1122l1 2l-1 1v10h-383l-201 -194v-1517zM84 17v1495h371v-1128l-2 -1l2 -2v-13h390v1137l177 -3l190 -190v-1295h-1128zM94 1525l183 177h358l-175 -177h-366zM468 397v1117l173 175v-1116zM470 381l184 186 h177v-186h-361zM854 1518l177 184h175l-178 -188v1zM1038 1505l180 190l181 -197l-180 -175zM1225 26v1286l1 -1l176 171v-1295z" />
<glyph unicode="V" horiz-adv-x="1501" d="M81 394l191 -201v-201h775v4l194 190v198l182 185l2 2v1153h-387l-191 -198v-952h-178v1134l7 6l-7 7v3h-2h-1h-384l-199 -189l-2 -2v-1139zM94 399v1124h368l3 -1134l-10 -9h405v1137h368v-1128l-192 -195l-2 -2v-187h-749v194zM104 1537l184 174h365l-179 -174h-370z M476 1522l1 -2l179 175v-1125l-177 -168zM489 393l176 167h182v-167h-358zM869 1530l174 181h360l-173 -179l2 -2h-363zM1047 15v172l181 183v-178zM1241 403v1122l171 176v-1125z" />
<glyph unicode="W" horiz-adv-x="1871" d="M78 6l377 -14l381 368l379 -368h380v4l192 185v1327l-10 10l3 3l-9 9l-3 -2l-177 183h-194l-94 -93l-93 93h-376l-90 -92l-81 90l-10 -9l81 -90l-89 -91h-2l-171 -349v349l192 192h-390l-196 -186v-1519zM91 18v1501l188 179h353l-173 -173v-412l193 393l358 6l5 -4l1 1 l198 -396v393l183 3l185 -198v-1306h-362l-384 374l-386 -374zM664 1519l79 81l6 -6l10 9l-6 7l86 88h352l-177 -173zM1026 1519l181 176l87 -87l-89 -89h-4v-350zM1224 1519l178 179h183l2 -2l-182 -177l-3 3zM1414 1509l182 178l163 -169l-185 -180zM1583 1329l185 180 l6 -6v-1316l-179 -173v1302z" />
<glyph unicode="X" horiz-adv-x="1461" d="M65 -8h389l185 367l184 -367h387v4l186 182v380v1v6l-259 409l82 152l177 191v191l-187 203h-191l-188 -198l-53 -104l-127 294l8 8h-397l-196 -200v-379l195 -377l-195 -376v-387zM78 5v370l197 380l-197 380v367l371 -7l193 -379l197 386h172l194 -192l2 -179 l-197 -369l183 -387l4 -370h-366l-192 383l-193 -383h-368zM87 1515l180 183h360l-177 -189zM461 1501l179 191l129 -298l-127 -249zM850 1515l174 183h175l-188 -183h-161zM1024 1509l186 182l170 -186l-170 -181zM1025 762l105 198l252 -398l-176 -182zM1207 377l7 -7 l168 174v-360l-172 -170zM1218 1313l164 175v-166l-162 -175z" />
<glyph unicode="Y" horiz-adv-x="1448" d="M65 1137l372 -383v-758h392v4l197 183v766l372 370v195l-187 197h-188l-198 -185l-37 -74l-137 246l1 2l-5 5l-1 3l-2 3h-389l-186 -193h-4v-381zM78 1142v363l369 3l200 -373l187 380h182l8 -8l178 -184v-180l-386 -383v-751h-365v751zM87 1518l174 180h370l-180 -176z M460 1512l181 177l140 -252l-135 -273zM829 18v736l183 182v-748zM846 1528l182 170h172l-176 -172l-2 2h-176zM1033 1516l179 175l170 -179l-171 -180zM1215 1156v160l169 179v-170z" />
<glyph unicode="Z" horiz-adv-x="1502" d="M71 0h1171v4l191 188v390h-761l574 557l187 190v184l7 6l-7 7v1l-192 192h-971l-199 -192v-383l576 -4l-574 -553l-2 -2v-585zM84 13v566l596 575l-596 3v364l1 1h955l185 -195l3 -186h2l-775 -751h766l4 -4l3 -373h-1144zM99 1535l177 171h943l-178 -171h-942zM488 404 l170 165h750l-174 -165h-746zM1053 1528l184 176l183 -183v-3l-189 -178l5 -5zM1238 390l182 171v-363l-178 -175zM1238 1333l3 -3l179 170v-165l-179 -182z" />
<glyph unicode="[" horiz-adv-x="758" />
<glyph unicode="\" horiz-adv-x="569" />
<glyph unicode="]" horiz-adv-x="758" />
<glyph unicode="^" />
<glyph unicode="_" horiz-adv-x="1024" d="M1 -81v-214h834l159 95v104l-144 107h-715zM11 -86h684l143 -114l3 -82l-9 -5h-821v201zM18 -79l121 83h695l-139 -83h-677zM704 -83l144 86l134 -101l-139 -96zM848 -200l136 94v-91l-134 -79z" />
<glyph unicode="`" horiz-adv-x="1024" d="M171 1302l258 -243h255l-123 251l-129 123h-261v-131zM180 1306v113l134 -115l103 -221zM188 1424h241l118 -113h-227zM325 1302h230l115 -234h-236z" />
<glyph unicode="a" horiz-adv-x="1341" d="M64 189l169 -198h346l165 176l-7 -176h349l181 186v848l-169 173h-176l-88 -88l-71 82l6 6h-353l-352 -344v-665zM76 193v656l171 167h331l183 -178v178h154l168 -161l-3 -3l8 -8l1 1l-12 -842h-328l8 196l-183 -196h-335zM259 1028l162 158h319l-162 -158h-319zM410 340 h348v337h-348v-337zM422 360v305h156v-154zM431 352l156 150h159v-150h-315zM589 1022l165 162l72 -82l-77 -77v-159zM590 514v151h156v-151h-156zM769 1028l158 158h160l-165 -160l-3 2h-150zM931 1017l167 164l156 -159l-163 -158zM1089 12l12 842l-1 2l155 151v-826z" />
<glyph unicode="b" horiz-adv-x="1329" d="M53 2h343v3l79 66l82 -85h349l340 352l2 2v666l-6 6l5 5l-8 9l-5 -5l-148 168l1 1l-8 9l-4 -5h-345l-158 -157l-6 489l8 9h-354l-167 -171v-1362zM65 14v1342h319v-522l185 183l339 -2l154 -162l-1 -1l7 -7v-673l-167 -174h-339l-178 184v-168h-319zM73 1368l152 155h320 l-157 -155h-315zM391 333h351v339h-351v-339zM396 21v131l70 -72zM396 862v497l158 156l6 -489zM403 353v307h158v-155zM412 345l157 152h161v-152h-318zM573 509v151h157v-151h-157zM581 1029l154 154h327l-159 -156zM917 1024l160 156l149 -168l-156 -151zM1078 852 l155 152l3 -3v-656l-156 -161v666z" />
<glyph unicode="c" horiz-adv-x="1311" d="M70 187l161 -178h863v3l174 174v349h-169l169 153v345l-170 170h-680l-346 -334l-2 -2v-680zM82 191v671l174 169h667l159 -168l-4 -328h-316l4 162h-352l-8 -336l676 -16v-324h-845zM269 1043l153 148h659l-156 -148h-656zM418 381l8 304h162l-4 -153zM427 372l165 151 h656l-162 -166zM596 535l4 150h154l-4 -150h-154zM935 1036l161 153l155 -155l-164 -159zM1090 542l4 323l162 158v-329zM1094 29v320l162 165v-323z" />
<glyph unicode="d" horiz-adv-x="1358" d="M80 172l172 -172h342l167 152l-3 -152h344l191 176v1194l-169 177v1l-8 8l-2 2h-178l-162 -174h-7v-8l-6 -6v-173h-340l-341 -327v-698zM92 177v687l173 167l326 -8l182 -170v339l6 5h-6v168l6 7h158l166 -159l-5 -5l7 -8l-12 -1184h8l-4 -4h-327l4 168l-185 -168h-332z M277 1042l149 143h323l-158 -150zM420 367h353v341h-353v-341zM432 388v308h158v-156zM441 379l158 153h162v-153h-320zM602 544v152h159v-152h-159zM602 1029l159 152v-300zM791 1384l151 162h163l-166 -162h-148zM949 1376l166 163l156 -163l-159 -155zM1105 20l12 1190 l162 158l2 -3v-1184z" />
<glyph unicode="e" horiz-adv-x="1358" d="M80 191l163 -178h702l348 354v181l-9 -9l-163 -3l172 171v341l-171 161l2 2l-9 9l-2 -2l-4 4h-673l-354 -345l-2 -2v-684zM92 195v675l178 173h673l168 -179l-10 -329l-684 4l-1 -176l689 -8v-163l-165 -167h-691zM282 1055l159 155h663l-165 -155h-657zM423 688h190v181 h-190v-181zM428 383l1 144l159 -1zM435 707v150h77v-81zM438 375l166 150l-1 1l497 -3h9l163 4l-164 -160zM445 700l75 67h81v-67h-156zM524 780v77h77v-77h-77zM952 1051l161 150l165 -156l-163 -166l9 -8l157 160v-319l-168 -168l10 325zM1117 205v154l164 160v-147z" />
<glyph unicode="f" horiz-adv-x="1363" d="M95 -382h343v4l164 161v491h172v4l170 174v320h167l170 173v175l-160 163l-8 8l-1 -1h-838l-179 -170v-1502zM107 -370v1482h829l163 -176l3 -152h-670l-3 -161l-1 -1l1 -1v-7h7v-1v1h324l3 -328h-340l3 -656h-319zM116 1123l163 155h821l-160 -155h-824zM435 274h155 v-487l-152 -149zM441 635l2 137h138zM448 625l150 147h326l-153 -147h-323zM772 610l160 154v-307l-158 -163zM949 1115l163 160l154 -157l-168 -163zM1106 946l163 159v-155l-155 -158l-3 149z" />
<glyph unicode="g" horiz-adv-x="1273" d="M51 108v-326l158 -169h646l335 321v1134l-162 163l-2 2h-648l-327 -327v-485l152 -161l-149 -152h-3zM62 97l307 -6v-157l334 3v331l-158 -1v6l-6 -6l-325 -1l-152 159v477l152 151h650l149 -171v-1102l-163 -156h-636l-152 163v310zM70 108l144 146l313 2l-155 -154z M225 1064l157 158h629l-147 -158h-639zM368 572h335v169h-335v-169zM379 587v143h151v-70zM380 -47v141l153 152v-141zM388 -55l153 152h151v-149zM398 584l139 67h154v-67h-293zM541 662v68h150v-68h-150zM545 108v148l147 1v-149h-147zM874 1058l150 161l153 -153 l-158 -173zM1024 -209v1091l155 169v-1112z" />
<glyph unicode="h" horiz-adv-x="1371" d="M89 -4h351v3l173 169v334l157 -2v-504h348l187 165v861l-181 178h-504v167l-174 169h-176l-181 -169v-1371zM101 8v1351h163l166 -166l-3 -2l7 -8v-169h514l165 -174l-3 -832h-328v504l-354 3v-507h-327zM110 1371l164 153h154l-164 -153h-154zM275 1365l168 157 l165 -160l-2 3l-168 -164zM440 16v487l161 -1v-329zM446 1031v162l162 158v-162zM458 1026l166 162h483l-166 -162h-483zM955 1023l167 162l170 -167l-172 -168zM1122 15l3 824l168 163v-835z" />
<glyph unicode="i" horiz-adv-x="684" d="M78 1h353l178 168v1029h-143l145 171l-171 171h-176l-168 -175v-179h156l-174 -160v-1025zM90 13v1005h345l-12 -1005h-333zM99 1030l170 156h320l-151 -156h-339zM108 1198v159h157l161 -159h-318zM116 1369l153 159h154l-159 -159h-148zM275 1363l163 162l157 -157 l-145 -170h-7zM435 21l12 1000l150 156v-1002z" />
<glyph unicode="j" horiz-adv-x="1244" d="M61 86v-328l152 -169h649l329 323v1285h-152l155 154l-161 166h-159l-172 -163v-168h144l-144 -150v-967h-152v172h-331l-155 -155h-3zM72 75h304v-172h337v1125h305l2 -2v-1266l-163 -160h-639l-146 162v313zM80 86l144 144h307l-146 -144h-305zM387 73l152 149v-156 l-151 -149l2 -2h-3v158zM402 -85l145 143h155v-143h-300zM713 1197v149h151l148 -149h-299zM721 1039l141 147h311l-150 -147h-302zM722 1357l157 149h136l-153 -149h-140zM873 1352l157 153l148 -153l-153 -153zM1031 -229v1260l149 145v-1259z" />
<glyph unicode="k" horiz-adv-x="1170" d="M92 7h323v4l148 150l157 -156l317 323l-2 2l-1 154l-223 235l228 236l75 80l-292 297l-3 4l-97 -63l-142 -140v289l8 8h-331l-165 -159v-1264zM103 18v1231h302v-304l320 315l296 -308l-306 -317l307 -307l-302 -307l-315 312v-315h-302zM103 1260v6l158 153h300 l-156 -148v-11h-302zM415 26v281l140 -139zM415 972v294l154 146v-290zM730 635l73 76l220 -232l1 -138zM734 1267l84 55l281 -287l-68 -73l-2 -2z" />
<glyph unicode="l" horiz-adv-x="701" d="M89 5h347l177 167v1191l5 6l-8 9l-1 -1l-153 167l-8 9l-1 -1h-173l-185 -176v-1371zM101 17v1350h167l169 -154l-9 -1196h-327zM110 1379l169 161h155l-164 -161h-160zM280 1373l167 162l153 -167l-157 -144zM440 25l9 1188l152 139v-1175z" />
<glyph unicode="m" horiz-adv-x="1717" d="M103 4h350v17l164 160h349l1 -1l1 1h4v3l156 153l-4 -333h354l180 189v841l-163 165l2 2l-8 9l-2 -2l-4 3l-349 -3l-171 -168l-157 165l7 6h-186v171h-344l-180 -174v-1204zM115 16v1183h327v-167l177 -6l179 -165l167 165h343l163 -164l7 -7v-833l-6 -6h-335l3 333l5 4 l-4 5l2 170l-183 3v-338h-336l6 335l-188 3v-505l-3 -2l3 -3v-5h-327zM124 1211l164 159h319l-163 -159h-320zM453 38v481l165 -3l-6 -323zM453 1052v152l162 158v-148zM461 1043l157 156h165l-164 -161zM630 1032l168 165l156 -165l-156 -154zM972 201v318l158 -3l-1 -162z M977 1037l162 159l339 3l-166 -162h-335zM1321 1029l166 162l157 -160l-164 -160zM1488 862l158 154v-818l-156 -164v826z" />
<glyph unicode="n" horiz-adv-x="1213" d="M100 5h357v3l162 143v-146h341l179 173v850l-162 165l1 1l-9 9l-4 -5h-332v176h-345l-176 -179zM112 17l12 1169l330 -5v-161h340l157 -184v-819h-320v500h-186v-500h-333zM132 1198l161 164h320l-155 -169zM457 24v481h162v-338zM466 1034v150l155 169v-158zM480 1032 l149 155h324l-159 -155h-314zM805 1025l163 160l157 -159l-168 -178zM963 25v812l164 174v-828z" />
<glyph unicode="o" horiz-adv-x="1414" d="M112 173l178 -172h693l347 345v685l-176 173h-697l-345 -341v-690zM124 178v680l173 171h680l166 -186v-666l-165 -164h-683zM310 1041l152 151h675l-161 -151h-666zM469 370h354v342h-354v-342zM481 390v310h159v-157zM490 382l159 153h162v-153h-321zM652 547v153h159 v-153h-159zM988 1035l164 154l163 -160l-164 -177zM1155 189v653l1 -1l162 173v-663z" />
<glyph unicode="p" horiz-adv-x="1329" d="M113 -418h337v3l160 159l-1 304h314l331 334v655l-152 149l1 1l-8 8l-1 -1l-4 4h-324l-82 -80l-72 74l6 6h-335l-168 -160l-2 -1v-1455zM124 -407v1435h315v-165l166 162v-4h322l155 -162v-635l-163 -165h-314l-166 185v-651h-315zM133 1040l155 147h303l-149 -147h-309z M437 414h331v320h-331v-320zM448 433v290h149v-146zM450 214l147 -162l2 -304l-149 -147v613zM450 889v143l154 152l72 -74zM456 425l149 144h152v-144h-301zM608 580v143h149v-143h-149zM613 1033l157 154h315l1 -1l-158 -153h-315zM938 1026l156 152l147 -144l-153 -165z M1093 236v622l150 162v-633z" />
<glyph unicode="q" horiz-adv-x="1307" d="M91 232l158 -164h330l154 148v-621h330l169 164v1280l-147 156l2 2l-8 8l-2 -1l-3 3h-174l-79 -80l-73 76l3 4h-335l-323 -332l-2 -1v-642zM102 237v632l158 162h316l168 -174v174h165l151 -162l-5 -1263h-311v636l-169 -162h-321zM271 1042l150 154h304l-149 -154h-305z M423 401h330v319h-330v-319zM434 420v289h148v-146zM442 412l148 143h152v-143h-300zM586 1036l154 159l73 -76l-80 -80v-154zM594 566v143h148v-143h-148zM752 1042l153 154h164l-157 -154h-160zM920 1035l157 152l143 -151l-157 -153zM1066 -386l6 1257v3l-1 1l150 147 v-1258z" />
<glyph unicode="r" horiz-adv-x="1222" d="M101 0h361v3l173 151v516h344l178 178v194l-170 173h-8l-2 1l-2 -1h-168l-170 -166l4 157l9 9h-358l-191 -179v-1036zM113 12v1016h342l4 -171l174 171h170l171 -175l-4 -171h-343l-173 -161l-4 -509h-337zM123 1040l173 162h324l-162 -162h-335zM463 20l4 495l156 147 v-503zM467 1031l162 162l-4 -157l-155 -151zM646 1040l166 162h151l-167 -162h-150zM811 1037l169 165h2l161 -162l-163 -175zM983 691l3 163l159 170v-171z" />
<glyph unicode="s" horiz-adv-x="1380" d="M117 0h848l185 173l2 2l171 167v343l-173 176l176 164l-178 169h-681l-350 -330v-176l165 -165l-162 -169h-3v-354zM129 12v330l672 4l5 175l-513 8l-164 164v166l182 172h661l156 -163h-493l-9 -183h341v-1l1 1h4l168 -176v-329l-180 -168h-831zM137 354l156 163l500 -7 l-3 -152zM324 1043l148 139h659l-153 -140l-1 1h-653zM639 709l7 147h138zM644 697l157 159h326l-164 -159h-319zM979 695l163 158l165 -169l-164 -161zM986 1033l160 147l162 -155l-166 -155zM1151 515l160 156v-324l-159 -156v323z" />
<glyph unicode="t" horiz-adv-x="1371" d="M75 677l334 3v-681h361v4l162 169l2 2v504h169l177 162v173l3 2l-9 9l-1 -1l-161 169h-169v319l3 2l-3 3v10h-355l-167 -168v-166h-178l-168 -161v-354zM87 689v333h343l3 158v170h328l-1 -1l4 -4v-316l-4 -4l4 -4v-11h167l1 -1l160 -168l3 -152h-334l-3 -678h-337v681z M96 1034l151 146h174l-3 -146h-322zM441 1362l152 152h336l-156 -152h-332zM770 20l3 658h149v-500zM776 1022v2l160 156h155l-162 -158h-153zM776 1041v307l155 151v-307zM941 1017l167 163l156 -166l-166 -162zM1104 844l1 -2l163 159v-155l-161 -149z" />
<glyph unicode="u" horiz-adv-x="1213" d="M108 1023h9v-1015h846l175 185v829l-166 181h-174l-157 -166v166h-345zM128 20v1003l330 -3l-6 -669v-6h189v672l160 3l163 -168l-9 -832h-827zM137 1034l163 157h327l-164 -160zM464 365l6 656l159 156v-152l-8 -9l8 1v-490zM472 357l157 153v-153h-157zM649 1029 l154 162h153l-149 -160h-1zM815 1023l154 165l155 -168l-156 -156zM967 29l8 825v1l151 150v-807z" />
<glyph unicode="v" horiz-adv-x="1222" d="M108 332l159 -183l3 -162h523v3l174 165v168l175 165l1 2v505l-170 195h-166v-6l-4 4l-168 -163v165h-353l-171 -174h-3v-684zM120 336v668h329l-15 -670v-6h201v676h159l161 -178v-492h7l-179 -169l-2 -2v-164h-500l-2 155zM128 1016l159 162h327l-166 -162h-320z M446 341l15 669v2l162 158v-659l-1 1zM462 340l161 156v-156h-161zM643 1016l166 162h148l-166 -162h-148zM793 7v151l162 153v-151zM803 1012l167 163l158 -180l-165 -161zM967 339v482l164 161v-487z" />
<glyph unicode="w" horiz-adv-x="1696" d="M52 163l173 -167h354l167 159l162 -159h347l348 326l2 2l12 864v6h-358v-6l-5 4l-156 -183h-3l-342 6l-165 -154v325l9 8h-354l-176 -173zM64 168l15 844h325l-9 -512h10l4 -5l5 5h174v341h325v-341h6l4 -5l5 5h173v497h1l1 -1l1 1l331 6l-14 -835l-170 -160h-338 l-167 163l-172 -163h-344zM87 1024l161 158h320l-161 -158h-320zM407 512l9 504l161 158v-499l-168 -163h-2zM426 512l151 146v-146h-151zM598 853l160 150l322 -5l-163 -145h-319zM925 514v330l164 146v-316zM940 512l149 145v-145h-149zM1114 1010l148 172h335l-167 -163 l4 -4zM1433 179l14 836h-5l163 159l-12 -845z" />
<glyph unicode="x" horiz-adv-x="1371" d="M73 -17h358l167 336l163 -336h354v3l170 169v343l-214 133l214 207v169l-167 179h-175l-178 -177l-34 -66l-123 236l7 7h-351l-179 -179v-331l168 -169l-180 -171v-353zM85 -5v335l185 177l-173 174v318h334l170 -333l172 333h172l165 -165l-8 -156l-177 -171l180 -181 l-2 -331h-335l-169 351l-175 -351h-339zM105 1011l164 163h318l-155 -163h-327zM442 1004l158 166l124 -240l-123 -238zM784 1011l163 163h159l-167 -163h-155zM942 507l120 116l208 -130l-158 -157zM953 1008l165 161l156 -166v-11l-155 -151zM1115 3l2 322l157 155v-320z M1115 690l6 138l1 -1l152 148v-132z" />
<glyph unicode="y" horiz-adv-x="1243" d="M88 846l363 -347l-14 -891l-1 -6h376l-1 4l182 179v892l188 179v183l-195 102l-180 -113l-58 -58l-280 243l-2 2h-188zM103 849l180 349l352 -360l175 177l176 -128v-193h6l-10 -10l-175 -180l-11 -884l1 -5h-348l15 887v2zM297 1202h164l278 -241l-104 -105zM809 -379 l10 878l161 165v-873zM821 1022l166 104l181 -94v-1l-175 -133zM999 700v187l169 128v-154z" />
<glyph unicode="z" horiz-adv-x="1218" d="M110 8h863v3l171 160v345h-342l342 325v191l-177 170h-677l-180 -170v-352h330l-330 -332v-340zM122 20v323l347 349h-347v331l675 -9l166 -168v-160h1l-362 -344h356l3 -322h-839zM131 1035l164 155h660l-167 -162l2 -2zM631 354l169 160v-10h324l-154 -154v4h-339z M803 1025l164 160l163 -156l-161 -172l-165 167zM970 341l4 -4l158 158v-319l-159 -148zM975 696v150l157 168v-168z" />
<glyph unicode="{" d="M240 638v60q172 5 223 71t51 133v468q0 74 77 141.5t185 67.5h108v-50h-90q-61 0 -107 -33.5t-47 -91.5v-500q0 -83 -60.5 -158.5t-142.5 -76.5v-2q82 -1 143 -76t61 -158l-1 -500q1 -58 47 -91.5t107 -33.5h90v-50h-108q-108 0 -184.5 67.5t-77.5 141.5v468 q0 66 -51 132t-223 71z" />
<glyph unicode="|" d="M427 -418v1995h160v-1995h-160z" />
<glyph unicode="}" d="M130 -192h90q61 0 107 33.5t47 91.5l-1 500q0 83 61 158t144 76v2q-83 1 -143.5 76.5t-60.5 158.5v500q-1 58 -47 91.5t-107 33.5h-90v50h108q108 0 185 -67.5t77 -141.5v-468q0 -67 51 -133t223 -71v-60q-172 -5 -223 -71t-51 -132v-468q-1 -74 -77.5 -141.5 t-184.5 -67.5h-108v50z" />
<glyph unicode="~" horiz-adv-x="1128" d="M58 255h852l163 130v144l-147 149h-731l-137 -127v-296zM68 265v279h699l147 -158l2 -114l-9 -7h-839zM76 554l123 114h711l-142 -114h-692zM777 548l146 118l138 -139l-142 -132zM924 386l139 130v-126l-137 -110z" />
<glyph unicode="&#xa1;" horiz-adv-x="564" d="M94 1064h272l134 127v138l-131 134h-138l-137 -131v-268zM97 -8h253l134 120l12 871v16h-4l-3 3l-3 -3h-250l-130 -122zM103 1073v253h128l128 -138v-115h-256zM106 1l8 869h247l-17 -869h-238zM110 1335l125 119h121l-125 -119h-121zM121 879l118 111h238l-107 -112v1 h-249zM239 1330l128 122l122 -125l-125 -130zM352 6l18 859l117 123v-5l-11 -867zM369 1079v109l122 128v-121z" />
<glyph unicode="&#xa2;" horiz-adv-x="1139" />
<glyph unicode="&#xa3;" d="M76 673v60h135q-58 143 -58 253q0 226 123.5 347t306.5 121h4q75 0 185.5 -14t110.5 -34v-161h-58q-5 61 -77 102q-72 31 -160 31h-2q-100 0 -190 -101q-84 -93 -84 -241q0 -15 1 -30q0 -135 53 -273h360v-60h-334q14 -30 31 -60q35 -63 35 -138q0 -161 -162 -375h402 q130 0 189 132l49 -1l-103 -231h-719l1 50q187 238 187 418q0 77 -34 143q-17 32 -31 62h-161z" />
<glyph unicode="&#xa4;" d="M122 413l118 117q-32 46 -48 103q-12 42 -12 84q0 44 13 87q16 55 47 99l-118 118l80 81l118 -118q44 30 99 46q44 14 89 14q41 0 83 -12q57 -17 102 -48l118 118l80 -81l-117 -117q31 -46 48 -102q12 -42 12 -85q0 -42 -12 -85q-17 -56 -48 -102l117 -117l-80 -81 l-118 118q-45 -32 -101 -48q-42 -12 -85 -12q-42 0 -85 12q-57 16 -102 48l-118 -118zM284 716q0 -28 9 -56q16 -59 57 -100q41 -40 99 -57q29 -8 58 -8t58 8q58 17 99 57q40 41 57 99q9 29 9 58t-9 58q-17 58 -57 99q-41 40 -100 57q-29 8 -58 8t-58 -9q-58 -17 -98 -56 q-39 -40 -56 -98q-10 -30 -10 -60z" />
<glyph unicode="&#xa5;" horiz-adv-x="1262" d="M8 1176q0 19 10.5 27.5t32.5 8.5q27 0 123 -8t164 -8h88q33 0 41 -6.5t8 -26.5q0 -8 -15 -14t-38 -6q-6 0 -18.5 2t-18.5 2q-24 0 -37.5 -9.5t-13.5 -25.5q0 -18 16.5 -52t46.5 -77l158 -221q13 -19 33 -53q41 -70 71 -70q9 0 16.5 5t14.5 15l277 396q8 12 13 26.5 t5 24.5q0 18 -10 27t-37 14q-15 2 -41 4q-47 3 -47 25q0 15 8 22.5t25 7.5q3 0 15 -1q56 -7 108 -7h139q30 0 65 1t37 1q11 0 18.5 -4.5t8.5 -11.5q0 -28 -38 -34q-18 -3 -27 -5q-63 -15 -147 -117q-7 -9 -12 -15l-169 -206h323q15 0 24 -6t9 -17q0 -15 -6 -20.5t-23 -5.5 h-366q-46 -57 -96.5 -112.5t-52.5 -59.5h511q18 0 25.5 -5.5t7.5 -17.5q0 -14 -7 -21t-22 -7h-530q0 -11 -1 -30.5t-1 -29.5l2 -215q0 -114 5.5 -150t20.5 -44q30 -17 107.5 -19t77.5 -31q0 -12 -10 -20t-25 -8q-2 0 -35.5 4t-64.5 4q-91 0 -208.5 -4t-142.5 -4q-31 0 -40 4 t-9 16t8 18.5t37 12.5q9 2 25 5q74 16 92 32q17 13 24 47t7 102l-2 242q0 19 -1.5 35t-4.5 32l-484 1q-14 0 -21 6.5t-7 19.5t6.5 19t21.5 6h467l-121 172h-344q-17 0 -23.5 5.5t-6.5 18.5q0 14 6 19.5t22 5.5h307q-43 57 -108 155q-131 197 -227 197q-7 0 -13 5.5t-6 11.5z " />
<glyph unicode="&#xa6;" d="M427 371h160v-789h-160v789zM427 789v789h160v-789h-160z" />
<glyph unicode="&#xa7;" d="M170 1130q0 148 89 237q82 79 216 86q8 1 17 1h3q66 0 163 -16.5t97 -41.5v-194h-51q-5 81 -80 132q-70 47 -149 51h-15q-78 0 -125 -44.5t-47 -117.5q0 -132 287 -269q149 -67 204.5 -143.5t55.5 -187.5q0 -171 -101 -282q-47 -39 -99 -64q108 -56 154 -118 q55 -77 55 -187q0 -171 -101 -283q-124 -102 -277 -105v1q-6 -1 -13 -1h-3q-66 0 -163 16.5t-97 41.5v194h51q5 -81 80 -132q68 -45 145 -50q113 6 185 69q72 64 72 165q0 125 -316 276q-123 64 -175.5 137t-52.5 177q0 148 89 237q67 65 170 82l-40 19q-123 64 -175.5 137 t-52.5 177zM297 571q0 -123 248 -250q56 16 97 53q73 65 73 166q0 5 -1 10h-2q-1 14 -4 27q-22 61 -113 127q-59 29 -126 29q-78 0 -125 -44.5t-47 -117.5z" />
<glyph unicode="&#xa8;" horiz-adv-x="1024" d="M209 1263q0 13 14 26l71 72q13 12 25 12q11 0 27 -14l69 -73q10 -14 10 -25q0 -13 -12 -27l-69 -75q-17 -17 -25 -17q-14 0 -25 12l-76 86q-9 12 -9 23zM574 1263q0 13 14 26l71 72q13 12 25 12q11 0 27 -13l69 -74q10 -14 10 -25q0 -13 -12 -26l-69 -76q-17 -17 -25 -17 q-14 0 -25 12l-76 87q-9 11 -9 22z" />
<glyph unicode="&#xa9;" horiz-adv-x="1674" d="M100 718q0 148 55.5 283t159.5 238q102 104 238.5 160.5t286.5 56.5q145 0 280 -56.5t239 -160.5q102 -101 158.5 -238t56.5 -283q0 -147 -56.5 -282t-162.5 -240q-105 -105 -239 -159.5t-283 -54.5q-146 0 -278 55.5t-238 160.5q-106 104 -161.5 237.5t-55.5 282.5z M160 718q0 -137 51 -259t148 -219q98 -96 219 -147t256 -51q137 0 259.5 50.5t219.5 145.5q97 98 149 221.5t52 258.5q0 134 -52 259.5t-145 219.5q-96 96 -220 147.5t-258 51.5q-137 0 -262 -51.5t-220 -147.5t-146 -219.5t-51 -259.5zM351 719q0 126 65.5 244t187.5 184.5 t254 66.5q38 0 75 -6.5t76 -20.5q5 -1 9 -1q19 0 26 30h42l72 -198h-44q-52 94 -131 124q-72 26 -147 26h-15q-86 -8 -166.5 -71t-121.5 -177q-33 -90 -33 -184q0 -25 2 -50q11 -121 69.5 -224t149.5 -152q72 -40 166 -42q124 0 194 56t70 126h53v-100q0 -46 -96.5 -86.5 t-242.5 -40.5q-142 0 -264 68t-186 185t-64 243z" />
<glyph unicode="&#xaa;" horiz-adv-x="648" />
<glyph unicode="&#xab;" horiz-adv-x="944" d="M174 479l342 303h14v-37l-205 -266l205 -266v-37h-14zM487 479l342 303h14v-37l-205 -266l205 -266v-37h-14z" />
<glyph unicode="&#xac;" d="M87 667v100h840v-491l-1 -1h-98v392h-741z" />
<glyph unicode="&#xad;" horiz-adv-x="670" d="M53 399h405l78 62v68l-70 71h-348l-65 -61v-140zM58 403v133h332l70 -75l1 -54l-4 -4h-399zM61 541l59 54h338l-68 -54h-329zM395 538l69 56l66 -66l-68 -63zM465 461l66 62v-60l-65 -52z" />
<glyph unicode="&#xae;" horiz-adv-x="1674" d="M100 718q0 148 55.5 283t159.5 238q102 104 238.5 160.5t286.5 56.5q145 0 280 -56.5t239 -160.5q102 -101 158.5 -238t56.5 -283q0 -147 -56.5 -282t-162.5 -240q-105 -105 -239 -159.5t-283 -54.5q-146 0 -278 55.5t-238 160.5q-106 104 -161.5 237.5t-55.5 282.5z M160 718q0 -137 51 -259t148 -219q98 -96 219 -147t256 -51q137 0 259.5 50.5t219.5 145.5q97 98 149 221.5t52 258.5q0 134 -52 259.5t-145 219.5q-96 96 -220 147.5t-258 51.5q-137 0 -262 -51.5t-220 -147.5t-146 -219.5t-51 -259.5zM524 269v50h43q37 0 37 121v538 q0 121 -37 121h-43v70h356q64 -1 125 -42q60 -41 92.5 -114t32.5 -152q0 -78 -32 -150.5t-114 -134.5l82 -116q100 -141 150 -141h34v-50h-346v50h45q30 0 30 22q0 29 -69 114l-75 102q-42 0 -84 42v-159q0 -121 36 -121h53v-50h-316zM751 725l3 -8q23 -56 56 -81 q29 -22 56 -22h6q31 4 61.5 38.5t46.5 97.5q13 50 13 103q0 13 -1 27q-4 67 -28 124.5t-56.5 76t-63.5 18.5h-93v-374z" />
<glyph unicode="&#xaf;" horiz-adv-x="670" />
<glyph unicode="&#xb0;" horiz-adv-x="674" d="M60 1164q0 116 81.5 197t197.5 81q115 0 196 -81.5t81 -196.5q0 -114 -82 -196t-197 -82q-117 0 -197 81t-80 197zM130 1163q0 -87 61 -147t148 -60t147 60t60 147t-60.5 148t-146.5 61t-147.5 -61t-61.5 -148z" />
<glyph unicode="&#xb1;" />
<glyph unicode="&#xb2;" />
<glyph unicode="&#xb3;" />
<glyph unicode="&#xb4;" horiz-adv-x="1024" d="M236 1051h258l261 246v132h-265l-130 -124zM250 1060l116 237h233l-110 -237h-239zM374 1306l120 114h244l-133 -114h-231zM506 1075l104 224l136 116v-115z" />
<glyph unicode="&#xb5;" horiz-adv-x="1180" />
<glyph unicode="&#xb6;" horiz-adv-x="1024" d="M93 1086q0 157 107.5 253t285.5 96h443v-70h-127v-1365h-82v1365h-166v-1365h-84v738q-174 8 -275.5 102.5t-101.5 245.5z" />
<glyph unicode="&#xb7;" horiz-adv-x="508" d="M129 709q0 15 16 31l82 84q15 14 29 14q13 0 31 -16l80 -86q12 -16 12 -29q0 -15 -14 -31l-80 -88q-20 -20 -29 -20q-16 0 -29 14l-88 101q-10 13 -10 26z" />
<glyph unicode="&#xb8;" horiz-adv-x="1024" d="M360 -290q85 -52 152 -52q66 0 94.5 21.5t28.5 66.5t-49 64q-40 16 -102 16q-16 0 -34 -2l48 176h63l-37 -104q32 4 62 5q86 0 134 -40.5t48 -113.5q0 -76 -58.5 -120.5t-160.5 -44.5q-109 0 -189 32v96z" />
<glyph unicode="&#xb9;" />
<glyph unicode="&#xba;" horiz-adv-x="718" />
<glyph unicode="&#xbb;" horiz-adv-x="944" d="M101 176v37l205 266l-205 266v37h14l342 -303l-342 -303h-14zM414 176v37l205 266l-205 266v37h14l342 -303l-342 -303h-14z" />
<glyph unicode="&#xbc;" horiz-adv-x="1708" />
<glyph unicode="&#xbd;" horiz-adv-x="1964" />
<glyph unicode="&#xbe;" horiz-adv-x="1708" />
<glyph unicode="&#xbf;" horiz-adv-x="1025" d="M62 257l248 -254l1 -1h273l371 379v255l-253 6l-125 -131v-124h-119v254l127 123l1 1v252h-260l-130 -128v-241l-134 -138v-253zM71 261v246l133 138v238l246 9v-247l-125 -121l-2 -2v-267h263v250h225v-259l-231 -235h-265zM197 1048h262l129 123v133l-126 129h-133 l-132 -126v-259zM206 1057v244h123l124 -133v-111h-247zM211 892l119 116h240l-118 -107zM213 1310l120 114h116l-120 -114h-116zM332 269v249l118 115v-249zM337 1305l123 117l117 -120l-120 -126zM339 263l117 115h121v-115h-238zM458 653v241l119 108v-233zM462 1063v105 l117 123v-116zM592 514l114 119l233 -5l-125 -114h-222zM820 255v252l126 115v-238z" />
<glyph unicode="&#xc0;" horiz-adv-x="1540" />
<glyph unicode="&#xc1;" horiz-adv-x="1540" />
<glyph unicode="&#xc2;" horiz-adv-x="1540" />
<glyph unicode="&#xc3;" horiz-adv-x="1540" />
<glyph unicode="&#xc4;" horiz-adv-x="1540" />
<glyph unicode="&#xc5;" horiz-adv-x="1540" />
<glyph unicode="&#xc6;" horiz-adv-x="2118" />
<glyph unicode="&#xc7;" horiz-adv-x="1399" />
<glyph unicode="&#xc8;" horiz-adv-x="1151" />
<glyph unicode="&#xc9;" horiz-adv-x="1151" />
<glyph unicode="&#xca;" horiz-adv-x="1151" />
<glyph unicode="&#xcb;" horiz-adv-x="1151" />
<glyph unicode="&#xcc;" horiz-adv-x="657" />
<glyph unicode="&#xcd;" horiz-adv-x="657" />
<glyph unicode="&#xce;" horiz-adv-x="657" />
<glyph unicode="&#xcf;" horiz-adv-x="657" />
<glyph unicode="&#xd0;" horiz-adv-x="1518" />
<glyph unicode="&#xd1;" horiz-adv-x="1554" />
<glyph unicode="&#xd2;" horiz-adv-x="1614" />
<glyph unicode="&#xd3;" horiz-adv-x="1614" />
<glyph unicode="&#xd4;" horiz-adv-x="1614" />
<glyph unicode="&#xd5;" horiz-adv-x="1614" />
<glyph unicode="&#xd6;" horiz-adv-x="1614" />
<glyph unicode="&#xd7;" d="M161 470l247 247l-247 248l99 98l247 -247l248 247l98 -99l-247 -247l247 -247l-99 -99l-247 247l-247 -247z" />
<glyph unicode="&#xd8;" horiz-adv-x="1614" />
<glyph unicode="&#xd9;" horiz-adv-x="1501" />
<glyph unicode="&#xda;" horiz-adv-x="1501" />
<glyph unicode="&#xdb;" horiz-adv-x="1501" />
<glyph unicode="&#xdc;" horiz-adv-x="1501" />
<glyph unicode="&#xdd;" horiz-adv-x="1233" />
<glyph unicode="&#xde;" horiz-adv-x="1120" />
<glyph unicode="&#xdf;" horiz-adv-x="1251" />
<glyph unicode="&#xe0;" horiz-adv-x="922" />
<glyph unicode="&#xe1;" horiz-adv-x="922" />
<glyph unicode="&#xe2;" horiz-adv-x="922" />
<glyph unicode="&#xe3;" horiz-adv-x="922" />
<glyph unicode="&#xe4;" horiz-adv-x="922" />
<glyph unicode="&#xe5;" horiz-adv-x="922" />
<glyph unicode="&#xe6;" horiz-adv-x="1454" />
<glyph unicode="&#xe7;" horiz-adv-x="905" />
<glyph unicode="&#xe8;" horiz-adv-x="909" />
<glyph unicode="&#xe9;" horiz-adv-x="909" />
<glyph unicode="&#xea;" horiz-adv-x="909" />
<glyph unicode="&#xeb;" horiz-adv-x="909" />
<glyph unicode="&#xec;" horiz-adv-x="514" />
<glyph unicode="&#xed;" horiz-adv-x="514" />
<glyph unicode="&#xee;" horiz-adv-x="514" />
<glyph unicode="&#xef;" horiz-adv-x="514" />
<glyph unicode="&#xf0;" horiz-adv-x="1139" />
<glyph unicode="&#xf1;" horiz-adv-x="1108" />
<glyph unicode="&#xf2;" horiz-adv-x="1010" />
<glyph unicode="&#xf3;" horiz-adv-x="1010" />
<glyph unicode="&#xf4;" horiz-adv-x="1010" />
<glyph unicode="&#xf5;" horiz-adv-x="1010" />
<glyph unicode="&#xf6;" horiz-adv-x="1010" />
<glyph unicode="&#xf7;" d="M87 647v140h839l1 -1v-139h-840zM382 377q0 15 16 31l82 84q15 14 29 14q13 0 31 -16l80 -86q12 -16 12 -29q0 -15 -14 -31l-80 -88q-20 -20 -29 -20q-16 0 -29 14l-88 101q-10 13 -10 26zM382 1070q0 15 16 31l82 84q15 14 29 14q13 0 31 -16l80 -86q12 -16 12 -29 q0 -15 -14 -31l-80 -88q-20 -20 -29 -20q-16 0 -29 14l-88 101q-10 13 -10 26z" />
<glyph unicode="&#xf8;" horiz-adv-x="1010" />
<glyph unicode="&#xf9;" horiz-adv-x="1059" />
<glyph unicode="&#xfa;" horiz-adv-x="1059" />
<glyph unicode="&#xfb;" horiz-adv-x="1059" />
<glyph unicode="&#xfc;" horiz-adv-x="1059" />
<glyph unicode="&#xfd;" horiz-adv-x="868" />
<glyph unicode="&#xfe;" horiz-adv-x="1010" />
<glyph unicode="&#xff;" horiz-adv-x="868" />
<glyph unicode="&#x2c6;" horiz-adv-x="1024" d="M221 1079l232 355h118l232 -355h-58l-233 216l-233 -216h-58z" />
<glyph unicode="&#x2dc;" horiz-adv-x="1024" d="M234 1132q19 106 68 158.5t129 52.5q46 -1 113 -24q64 -23 112 -23h4q36 0 58 20t36 66h54q-20 -103 -68.5 -154t-126.5 -51h-4q-50 0 -113 23q-66 24 -114 24q-39 0 -60.5 -20.5t-33.5 -71.5h-54z" />
<glyph unicode="&#x2000;" horiz-adv-x="862" />
<glyph unicode="&#x2001;" horiz-adv-x="1724" />
<glyph unicode="&#x2002;" horiz-adv-x="862" />
<glyph unicode="&#x2003;" horiz-adv-x="1724" />
<glyph unicode="&#x2004;" horiz-adv-x="574" />
<glyph unicode="&#x2005;" horiz-adv-x="431" />
<glyph unicode="&#x2006;" horiz-adv-x="287" />
<glyph unicode="&#x2007;" horiz-adv-x="287" />
<glyph unicode="&#x2008;" horiz-adv-x="215" />
<glyph unicode="&#x2009;" horiz-adv-x="344" />
<glyph unicode="&#x200a;" horiz-adv-x="95" />
<glyph unicode="&#x2010;" horiz-adv-x="670" d="M53 399h405l78 62v68l-70 71h-348l-65 -61v-140zM58 403v133h332l70 -75l1 -54l-4 -4h-399zM61 541l59 54h338l-68 -54h-329zM395 538l69 56l66 -66l-68 -63zM465 461l66 62v-60l-65 -52z" />
<glyph unicode="&#x2011;" horiz-adv-x="670" d="M53 399h405l78 62v68l-70 71h-348l-65 -61v-140zM58 403v133h332l70 -75l1 -54l-4 -4h-399zM61 541l59 54h338l-68 -54h-329zM395 538l69 56l66 -66l-68 -63zM465 461l66 62v-60l-65 -52z" />
<glyph unicode="&#x2012;" horiz-adv-x="670" d="M53 399h405l78 62v68l-70 71h-348l-65 -61v-140zM58 403v133h332l70 -75l1 -54l-4 -4h-399zM61 541l59 54h338l-68 -54h-329zM395 538l69 56l66 -66l-68 -63zM465 461l66 62v-60l-65 -52z" />
<glyph unicode="&#x2013;" horiz-adv-x="1108" d="M56 419v120h996v-120h-996z" />
<glyph unicode="&#x2014;" horiz-adv-x="2048" d="M0 419v120h2048v-120h-2048z" />
<glyph unicode="&#x2018;" horiz-adv-x="557" d="M186 1233q0 109 71 226.5t139 117.5v-43q-73 -43 -87 -190q0 -119 129 -161v-42l-119 -125q-44 0 -88.5 65.5t-44.5 151.5z" />
<glyph unicode="&#x2019;" horiz-adv-x="557" d="M119 1410v42l119 125q44 0 88.5 -65.5t44.5 -151.5q0 -109 -71 -226.5t-139 -117.5v43q73 43 87 190q0 119 -129 161z" />
<glyph unicode="&#x201a;" horiz-adv-x="557" d="M119 114v42l119 125q44 0 88.5 -65.5t44.5 -151.5q0 -109 -71 -226.5t-139 -117.5v43q73 43 87 190q0 119 -129 161z" />
<glyph unicode="&#x201c;" horiz-adv-x="910" d="M126 1173l77 -2v-152h162l81 77v158h-81l2 233l55 45l-135 96l-160 -132l-1 -1v-322zM132 1178v314l91 75l136 -79l-76 -72v-245h2l-1 -1l4 -4l4 5h69v-147h-152v153zM227 1571l60 50l126 -89l-49 -41zM289 1177v236l72 69l-2 -233l-69 -72h-1zM298 1177l68 71h71 l-70 -73v2h-69zM367 1028v139l73 77v-145zM474 1175l77 -2v-152h162l80 78v157h-80l1 233l55 46l-135 95l-159 -132l-1 -1v-322zM479 1181v313l91 76l137 -80l-76 -72v-245h1v-1l3 -3l5 4h69v-147h-153v153zM575 1573l60 50l125 -89l-49 -40zM636 1179v237l73 68l-2 -233 l-69 -72h-2zM645 1179l69 71h70l-70 -73v2h-69zM714 1030v139l74 77v-145z" />
<glyph unicode="&#x201d;" horiz-adv-x="910" d="M132 1087l136 -75l149 143v288h-62l-5 74l-74 72l-2 2l-1 -2h-66l-74 -72v-145h65v-213zM138 1377v136h69h2l64 -73v-68h69v-282l-75 -72l-127 70l63 69v220h-65zM142 1518l67 66h59l-63 -66h-63zM211 1518l64 66l68 -67l-68 -71l-63 72h-1zM278 1380v62l67 70l5 -70z M282 1377l71 62h56l-62 -62h-65zM347 1095v275l65 65v-277zM435 1086l136 -75l149 144v288h-62l-5 73l-74 73l-2 1l-1 -1h-66l-73 -73v-145h64v-213zM442 1376v136h68h3l63 -73v-68h70v-281l-76 -73l-127 70l63 69v220h-64zM445 1517l67 67h59l-63 -67h-63zM514 1517l64 66 l68 -67l-68 -71l-63 72h-1zM581 1379v62l67 70l5 -70zM585 1376l71 62h56l-62 -62h-65zM650 1094v276l65 64v-277z" />
<glyph unicode="&#x201e;" horiz-adv-x="910" d="M119 114v42l119 125q44 0 88.5 -65.5t44.5 -151.5q0 -109 -71 -226.5t-139 -117.5v43q73 43 87 190q0 119 -129 161zM472 114v42l119 125q44 0 88.5 -65.5t44.5 -151.5q0 -109 -71 -226.5t-139 -117.5v43q73 43 87 190q0 119 -129 161z" />
<glyph unicode="&#x2022;" horiz-adv-x="1024" d="M216 718q0 123 87 209t210 86q122 0 208.5 -86.5t86.5 -208.5t-87.5 -209.5t-209.5 -87.5q-123 0 -209 87t-86 210z" />
<glyph unicode="&#x2026;" horiz-adv-x="1905" d="M105 -4h196l97 92v99l-95 97h-99l-99 -94v-194zM112 2v183h92l92 -99v-84h-184zM117 191l89 86h88l-90 -86h-87zM210 188l92 88l88 -90l-90 -94zM303 7v79l88 92v-87zM797 -8h196l97 92v99l-95 97h-99l-99 -94v-194zM804 -2v183h92l92 -99v-84h-184zM809 187l89 86h88 l-90 -86h-87zM902 184l92 88l88 -90l-90 -94zM995 3v79l88 92v-87zM1484 -4h196l97 92v99l-95 97h-99l-99 -94v-194zM1491 2v183h92l92 -99v-84h-184zM1496 191l89 86h88l-90 -86h-87zM1589 188l92 88l88 -90l-90 -94zM1682 7v79l88 92v-87z" />
<glyph unicode="&#x202f;" horiz-adv-x="344" />
<glyph unicode="&#x2039;" horiz-adv-x="631" d="M174 479l342 303h14v-37l-205 -266l205 -266v-37h-14z" />
<glyph unicode="&#x203a;" horiz-adv-x="631" d="M101 176v37l205 266l-205 266v37h14l342 -303l-342 -303h-14z" />
<glyph unicode="&#x205f;" horiz-adv-x="431" />
<glyph unicode="&#x20ac;" d="M-44 653l17 60h87v29q0 16 1 31h-71l17 60h58q14 145 76 281q81 178 226 274t298 96q43 0 87 -8q40 -10 82 -29q8 -6 16 -6q20 0 34 45h41l84 -281l-40 -1q-49 134 -138 178q-43 22 -81 32v3q-50 16 -101 16q-17 0 -34 -2q-120 -12 -226 -113.5t-157 -273.5 q-32 -104 -39 -211h706l-17 -60h-692q0 -30 2 -60h674l-17 -60h-652q17 -158 83 -298q74 -157 193 -236q102 -68 216 -69q186 3 256 91q74 91 74 185h48v-143q0 -70 -111 -127q-105 -54 -267 -56q-181 0 -325.5 98t-223.5 274q-62 135 -76 281h-108z" />
<glyph unicode="&#x2122;" horiz-adv-x="1497" />
<glyph unicode="&#x25fc;" horiz-adv-x="1185" d="M0 0v1185h1185v-1185h-1185z" />
</font>
</defs>
</svg>
